<?xml version="1.0" encoding="iso-8859-1"?>
<!-- Uploaded to: SVG Repo, www.svgrepo.com, Generator: SVG Repo Mixer Tools -->
<!DOCTYPE svg PUBLIC "-//W3C//DTD SVG 1.1//EN" "http://www.w3.org/Graphics/SVG/1.1/DTD/svg11.dtd">
<svg height="800px" width="800px" version="1.1" id="Capa_1" xmlns="http://www.w3.org/2000/svg" xmlns:xlink="http://www.w3.org/1999/xlink" 
	 viewBox="0 0 264.97 264.97" xml:space="preserve">
<g>
	<path style="fill:#1D1D1B;" d="M263.308,96.605c-0.044-1.204-1.121-1.681-2.01-1.463c-0.138-0.678-0.573-1.305-1.265-1.453
		c-2.248-0.479-4.577,0.041-6.873,0.032c-2.684-0.01-5.339-0.293-7.976-0.784c-2.209-0.41-3.183,2.86-0.96,3.415
		c-0.816-0.28-1.883,0.156-1.95,1.304c-0.573,9.921-0.915,19.934-1.096,29.981c-36.364-0.674-72.736-0.757-109.101-1.521
		c-14.455-0.303-29.051-1.043-43.672-1.688c12.939-34.272-49.741-44.827-66.493-20.793c-0.198-17.192-0.507-34.367-1.147-51.464
		c-0.02-0.54-0.25-0.928-0.57-1.182c-0.092-0.604-0.435-1.141-1.2-1.279c-2.146-0.388-4.214,0.291-6.39,0.311
		c-2.486,0.024-4.912-0.364-7.297-1.06c-1.262-0.368-2.068,0.44-2.236,1.404C1.813,49.795-0.01,50.383,0,52.184
		c0.284,53.532-0.495,107.246,1.469,160.744c0.022,0.619,0.326,1.033,0.725,1.286c0.069,0.529,0.396,0.994,1.046,1.099
		c5.549,0.894,11.336,1.147,16.882,0.102c1.29-0.243,1.673-1.595,1.366-2.692c0.12-0.242,0.201-0.52,0.206-0.854
		c0.11-8.531,0.186-17.098,0.27-25.657c0.196,0.105,0.42,0.18,0.675,0.21c71.414,8.632,147.416,3.433,218.787-3.452
		c0.151-0.015,0.262-0.084,0.398-0.121c0.368,8.659,0.844,17.286,1.439,25.841c0.058,0.826,0.55,1.35,1.148,1.581
		c0.089,0.501,0.402,0.959,0.963,1.111c4.924,1.332,10.135,2.109,15.226,1.458c0.898-0.115,1.481-0.68,1.783-1.353
		c0.876,0,1.748-0.576,1.781-1.733C265.221,172.188,264.685,134.159,263.308,96.605z M4.732,212.383
		c1.291-53.21-0.118-106.599-0.484-159.823c0.023,0.01,0.036,0.028,0.06,0.038c3.485,1.363,9.206,2.761,13.211,1.37
		c-2.484,52.137-1.709,105.377,0.374,157.512C13.493,211.994,9.177,212.405,4.732,212.383z M241.098,132.384
		c-0.128,10.343-0.082,20.717,0.146,31.077c-72.546-1.079-146.692-4.665-219.121-0.066c0.072-12.193,0.07-24.396,0.025-36.597
		c34.713,4.698,70.851,3.536,105.835,4.284C165.667,131.89,203.404,132.713,241.098,132.384z M21.962,108.242
		c15.16-19.264,74.765-16.44,61.219,15.947c-0.003,0.008-0.001,0.014-0.004,0.021c-20.431-0.857-40.884-1.404-61.042-0.139
		C22.109,118.791,22.014,113.52,21.962,108.242z M241.426,178.37c-73.324,6.416-145.444,3.841-218.787,4.722
		c-0.247,0.003-0.454,0.055-0.643,0.126c0.054-5.702,0.073-11.417,0.11-17.128c72.434,5.264,146.663,2.352,219.262,1.94
		c0.093,3.456,0.15,6.917,0.281,10.365C241.569,178.395,241.511,178.362,241.426,178.37z M246.831,208.695l0.001-0.004
		c0.112-36.876-0.229-74.19-1.683-111.034c-0.027-0.689-0.417-1.118-0.901-1.294c4.684,1.128,11.22,2.614,15.877,0.792
		c-0.924,37.007-1.014,74.452,0.417,111.446C255.921,208.965,251.429,209.186,246.831,208.695z"/>
	<path style="fill:#1D1D1B;" d="M260.782,171.038c-20.273-1.893-41.305,0.129-61.623,0.82c-0.661,0.022-0.667,1.038,0,1.031
		c20.453-0.198,41.222,0.871,61.623-0.323C261.774,172.507,261.753,171.129,260.782,171.038z"/>
	<path style="fill:#1D1D1B;" d="M259.031,180.061c-5.463-0.829-11.104-0.632-16.597-0.239c-0.781,0.056-0.797,1.263,0,1.229
		c5.505-0.23,10.914,0.203,16.407,0.413C259.626,181.494,259.837,180.185,259.031,180.061z"/>
	<path style="fill:#1D1D1B;" d="M260.94,189.009c-4.383-0.605-8.849-0.616-13.267-0.738c-0.799-0.022-0.779,1.165,0,1.23
		c4.346,0.361,8.738,0.854,13.102,0.735C261.444,190.218,261.664,189.109,260.94,189.009z"/>
	<path style="fill:#1D1D1B;" d="M258.157,196.779c-3.548-0.099-6.884-0.359-10.344-1.192c-0.684-0.164-0.917,0.788-0.285,1.033
		c3.388,1.317,7.191,1.899,10.795,1.386C259.041,197.904,258.833,196.798,258.157,196.779z"/>
	<path style="fill:#1D1D1B;" d="M259.465,203.425c-4.042-0.449-8.403-0.553-12.459-0.203c-0.55,0.048-0.783,0.965-0.14,1.052
		c4.083,0.55,8.491,0.677,12.6,0.42C260.295,204.642,260.268,203.514,259.465,203.425z"/>
	<path style="fill:#1D1D1B;" d="M263.075,158.081c-8.374-3.12-18.424-1.427-27.242-1.357c-11.127,0.089-22.254,0.171-33.381,0.255
		c-0.562,0.004-0.564,0.868,0,0.873c19.678,0.16,40.933-1.87,60.417,0.975C263.356,158.898,263.549,158.258,263.075,158.081z"/>
	<path style="fill:#1D1D1B;" d="M262.076,146.2c-17.289,0.766-33.821,1.197-51.034-1.35c-0.52-0.077-0.752,0.716-0.221,0.804
		c16.839,2.777,34.451,4.205,51.418,1.753C262.925,147.308,262.759,146.169,262.076,146.2z"/>
	<path style="fill:#1D1D1B;" d="M261.429,136.978c-17.365-0.779-35.823,3.491-52.973,0.394c-0.77-0.138-1.109,1.02-0.328,1.186
		c7.448,1.579,15.041,0.942,22.609,0.793c10.212-0.2,20.526-0.031,30.692-1.064C262.253,138.203,262.284,137.017,261.429,136.978z"
		/>
	<path style="fill:#1D1D1B;" d="M263.961,125.01c-6.18,0.863-11.978,1.793-18.245,1.248c-1.198-0.104-1.179,1.746,0,1.864
		c6.104,0.612,12.844,0.587,18.677-1.543C265.397,126.212,264.986,124.867,263.961,125.01z"/>
	<path style="fill:#1D1D1B;" d="M259.919,114.756c-4.083,0.873-8.066,1.456-12.244,1.083c-1.212-0.109-1.189,1.76,0,1.884
		c4.295,0.447,8.64,0.195,12.666-1.438C261.27,115.909,260.941,114.537,259.919,114.756z"/>
	<path style="fill:#1D1D1B;" d="M263.4,106.98c-5.033-0.087-10.073,0.497-15.087,0.922c-1.043,0.088-1.068,1.708,0,1.646
		c5.091-0.297,10.225-0.451,15.264-1.263C264.335,108.163,264.125,106.993,263.4,106.98z"/>
	<path style="fill:#1D1D1B;" d="M259.467,100.793c-1.75-0.152-3.487-0.158-5.24-0.158c-1.417,0-1.419,2.201,0,2.201
		c1.754,0,3.491-0.007,5.24-0.158C260.677,102.573,260.679,100.898,259.467,100.793z"/>
</g>
</svg>