<svg width="1098" height="878" viewBox="0 0 1098 878" fill="none" xmlns="http://www.w3.org/2000/svg">
<path d="M365.714 256.143C365.714 286.619 355.035 312.512 333.678 333.821C312.32 355.13 286.427 365.808 256 365.857C225.573 365.906 199.68 355.227 178.322 333.821C156.965 312.414 146.286 286.522 146.286 256.143C146.286 225.764 156.965 199.872 178.322 178.465C199.68 157.059 225.573 146.38 256 146.429C286.427 146.477 312.32 157.156 333.678 178.465C355.035 199.774 365.714 225.667 365.714 256.143ZM950.857 475.571V731.571H146.286V621.857L329.143 439L420.571 530.429L713.143 237.857L950.857 475.571ZM1005.71 73.2857H91.4286C86.4549 73.2857 82.1638 75.0899 78.5554 78.6983C74.947 82.3067 73.1429 86.5977 73.1429 91.5714V786.429C73.1429 791.402 74.947 795.693 78.5554 799.302C82.1638 802.91 86.4549 804.714 91.4286 804.714H1005.71C1010.69 804.714 1014.98 802.91 1018.59 799.302C1022.2 795.693 1024 791.402 1024 786.429V91.5714C1024 86.5977 1022.2 82.3067 1018.59 78.6983C1014.98 75.0899 1010.69 73.2857 1005.71 73.2857ZM1097.14 91.5714V786.429C1097.14 811.59 1088.2 833.118 1070.3 851.014C1052.4 868.909 1030.88 877.857 1005.71 877.857H91.4286C66.2674 877.857 44.739 868.909 26.8434 851.014C8.94781 833.118 0 811.59 0 786.429V91.5714C0 66.4103 8.94781 44.8819 26.8434 26.9863C44.739 9.09066 66.2674 0.14286 91.4286 0.14286H1005.71C1030.88 0.14286 1052.4 9.09066 1070.3 26.9863C1088.2 44.8819 1097.14 66.4103 1097.14 91.5714Z" fill="#BFBFBF"/>
</svg>
