<svg width="800" height="800" viewBox="0 0 800 800" fill="none" xmlns="http://www.w3.org/2000/svg">
<path d="M400 0C234.312 0 100 134.312 100 300C100 370.975 131.275 433.388 165.887 487.5L379.6 789.45C384.288 796.075 391.9 800 400 800C408.1 800 415.712 796.075 420.4 789.45L634.113 487.5C667.188 442.975 700 370.975 700 300C700 134.312 565.688 0 400 0ZM601.088 487.5H600.962L400 762.5L199.038 487.5H198.913C168.363 443.363 125 372.487 125 300C125 148.125 248.125 25 400 25C551.875 25 675 148.125 675 300C675 372.487 628.513 447.262 601.088 487.5Z" fill="#505050"/>
<path d="M400 175C330.963 175 275 230.975 275 300C275 369.025 330.963 425 400 425C469.037 425 525 369.025 525 300C525 230.975 469.037 175 400 175ZM400 400C344.775 400 300 355.225 300 300C300 244.775 344.775 200 400 200C455.225 200 500 244.775 500 300C500 355.225 455.225 400 400 400Z" fill="#505050"/>
<path d="M400 125C303.35 125 225 203.35 225 300C225 396.65 303.35 475 400 475C496.65 475 575 396.65 575 300C575 203.35 496.65 125 400 125ZM400 450C317.163 450 250 382.837 250 300C250 217.163 317.163 150 400 150C482.837 150 550 217.163 550 300C550 382.837 482.837 450 400 450Z" fill="#505050"/>
</svg>
